<svg width="29" height="30" viewBox="0 0 29 30" fill="none" xmlns="http://www.w3.org/2000/svg">
  <path
    d="M14.5008 0.390076C6.49143 0.390076 7.86789e-08 6.88151 7.86789e-08 14.8893C-0.000198299 16.7936 0.374739 18.6794 1.1034 20.4388C1.83206 22.1982 2.90017 23.7968 4.24673 25.1433C5.59329 26.4899 7.19192 27.558 8.95132 28.2867C10.7107 29.0153 12.5964 29.3903 14.5008 29.3901C22.5071 29.3901 29 22.8986 29 14.8893C29 6.88151 22.5071 0.390076 14.5008 0.390076ZM3.02068 14.8893C3.0211 12.7159 3.63857 10.5872 4.80128 8.75094C5.96399 6.91466 7.62415 5.44621 9.58866 4.51641C11.5532 3.5866 13.7413 3.23364 15.8985 3.49859C18.0557 3.76354 20.0934 4.6355 21.7745 6.01306L5.62299 22.1646C3.93733 20.1151 3.01729 17.543 3.02068 14.8893ZM14.4992 26.3664C11.8466 26.3705 9.27537 25.4509 7.22697 23.7656L23.3785 7.61553C24.7553 9.2969 25.6266 11.3346 25.8909 13.4916C26.1552 15.6486 25.8018 17.8363 24.8718 19.8004C23.9417 21.7645 22.4732 23.4242 20.637 24.5865C18.8008 25.7488 16.6724 26.3661 14.4992 26.3664Z"
    fill="white"/>
</svg>
