<svg width="30" height="26" viewBox="0 0 30 26" fill="none" xmlns="http://www.w3.org/2000/svg">
  <path d="M12 0H28C29.1 0 29.99 0.920146 29.99 2.04477L30 17.9735C30 18.8834 28.92 19.3435 28.29 18.6994L26 16.3581H12C10.9 16.3581 10 15.438 10 14.3134V2.04477C10 0.920146 10.9 0 12 0ZM25 7.15669H15C14.45 7.15669 14 7.61676 14 8.17907C14 8.74138 14.45 9.20146 15 9.20146H25C25.55 9.20146 26 8.74138 26 8.17907C26 7.61676 25.55 7.15669 25 7.15669ZM19 12.2686H25C25.55 12.2686 26 11.8085 26 11.2462C26 10.6839 25.55 10.2238 25 10.2238H19C18.45 10.2238 18 10.6839 18 11.2462C18 11.8085 18.45 12.2686 19 12.2686ZM15 6.13431H25C25.55 6.13431 26 5.67423 26 5.11192C26 4.54961 25.55 4.08954 25 4.08954H15C14.45 4.08954 14 4.54961 14 5.11192C14 5.67423 14.45 6.13431 15 6.13431Z" fill="#7E7E7E"/>
  <path d="M18 7H2C0.9 7 0.00999999 7.9 0.00999999 9L0 24.58C0 25.47 1.08 25.92 1.71 25.29L4 23H18C19.1 23 20 22.1 20 21V9C20 7.9 19.1 7 18 7ZM5 14H15C15.55 14 16 14.45 16 15C16 15.55 15.55 16 15 16H5C4.45 16 4 15.55 4 15C4 14.45 4.45 14 5 14ZM11 19H5C4.45 19 4 18.55 4 18C4 17.45 4.45 17 5 17H11C11.55 17 12 17.45 12 18C12 18.55 11.55 19 11 19ZM15 13H5C4.45 13 4 12.55 4 12C4 11.45 4.45 11 5 11H15C15.55 11 16 11.45 16 12C16 12.55 15.55 13 15 13Z" fill="white"/>
</svg>
