<svg width="34" height="29" viewBox="0 0 34 29" fill="none" xmlns="http://www.w3.org/2000/svg">
  <path
    d="M2.78 9.71998C2.77999 9.44549 2.69872 9.17715 2.54642 8.94879C2.39412 8.72043 2.17762 8.54227 1.92421 8.43677C1.67081 8.33128 1.39184 8.30318 1.12248 8.356C0.853125 8.40883 0.605439 8.54023 0.410651 8.73362C0.215864 8.92702 0.0826969 9.17376 0.0279394 9.44273C-0.026818 9.7117 -0.000714071 9.99086 0.10296 10.245C0.206634 10.4992 0.383237 10.7169 0.610502 10.8709C0.837767 11.0248 1.10552 11.108 1.38 11.11C1.56338 11.1113 1.7452 11.0763 1.915 11.0071C2.0848 10.9378 2.23922 10.8356 2.36935 10.7064C2.49948 10.5772 2.60277 10.4235 2.67324 10.2542C2.74372 10.0849 2.78001 9.90336 2.78 9.71998Z"
    fill="white"/>
  <path
    d="M30.5903 12.2299C29.0126 12.5243 27.4752 13.0043 26.0103 13.6599C24.7898 14.2545 23.6252 14.9573 22.5303 15.7599C21.861 14.8832 21.2751 13.9458 20.7803 12.9599C19.6282 10.4817 18.6914 7.90883 17.9803 5.26994C17.9217 5.05178 17.791 4.85989 17.6094 4.72552C17.4278 4.59114 17.2061 4.52221 16.9803 4.52994C16.7545 4.52221 16.5328 4.59114 16.3512 4.72552C16.1696 4.85989 16.0389 5.05178 15.9803 5.26994C15.2738 7.91026 14.3368 10.4835 13.1803 12.9599C12.686 13.9483 12.0966 14.886 11.4203 15.7599C10.3254 14.9573 9.16076 14.2545 7.9403 13.6599C6.47436 13.007 4.93733 12.5271 3.3603 12.2299C3.17379 12.1932 2.98066 12.2103 2.80354 12.2794C2.62643 12.3485 2.47268 12.4666 2.3603 12.6199C2.24904 12.7692 2.18166 12.9466 2.16576 13.1321C2.14986 13.3176 2.18607 13.5039 2.2703 13.6699C4.38142 18.0647 5.84011 22.744 6.6003 27.5599C6.64078 27.7947 6.76376 28.0074 6.9471 28.1595C7.13043 28.3117 7.36207 28.3934 7.6003 28.3899H26.4003C26.6385 28.3934 26.8702 28.3117 27.0535 28.1595C27.2368 28.0074 27.3598 27.7947 27.4003 27.5599C28.1386 22.7477 29.5736 18.0686 31.6603 13.6699C31.7445 13.5039 31.7807 13.3176 31.7648 13.1321C31.7489 12.9466 31.6816 12.7692 31.5703 12.6199C31.4595 12.4701 31.3091 12.3541 31.1359 12.2852C30.9627 12.2163 30.7738 12.1972 30.5903 12.2299ZM25.5703 26.3899H8.4203C7.71924 22.3739 6.57906 18.447 5.0203 14.6799C5.73453 14.8902 6.43295 15.1509 7.1103 15.4599C8.48291 16.127 9.77465 16.9491 10.9603 17.9099C11.1582 18.0786 11.4141 18.1636 11.6735 18.1468C11.933 18.13 12.1758 18.0127 12.3503 17.8199C13.4038 16.6033 14.3007 15.2595 15.0203 13.8199C15.7855 12.232 16.4534 10.599 17.0203 8.92994C17.583 10.6005 18.251 12.2338 19.0203 13.8199C19.7424 15.2557 20.6355 16.5988 21.6803 17.8199C21.8552 18.0157 22.1 18.1348 22.3619 18.1516C22.6238 18.1685 22.8818 18.0817 23.0803 17.9099C24.2617 16.9432 25.5542 16.1207 26.9303 15.4599C27.6063 15.1476 28.305 14.8869 29.0203 14.6799C27.4399 18.4434 26.2828 22.3708 25.5703 26.3899Z"
    fill="white"/>
  <path
    d="M32.6097 11.11C33.3774 11.11 33.9997 10.4876 33.9997 9.71996C33.9997 8.95228 33.3774 8.32996 32.6097 8.32996C31.8421 8.32996 31.2197 8.95228 31.2197 9.71996C31.2197 10.4876 31.8421 11.11 32.6097 11.11Z"
    fill="white"/>
  <path
    d="M17.0001 2.77996C17.2754 2.78195 17.5452 2.70211 17.7751 2.55058C18.005 2.39906 18.1847 2.18267 18.2914 1.92886C18.3982 1.67505 18.4271 1.39526 18.3746 1.12497C18.3221 0.854682 18.1905 0.606074 17.9965 0.410677C17.8025 0.21528 17.5549 0.081899 17.285 0.0274501C17.0151 -0.0269989 16.7351 -6.24284e-05 16.4805 0.104843C16.2259 0.209749 16.0083 0.387897 15.8551 0.616693C15.7019 0.845489 15.6201 1.11462 15.6201 1.38996C15.6201 1.75689 15.7652 2.10893 16.0237 2.36932C16.2822 2.62971 16.6332 2.77732 17.0001 2.77996Z"
    fill="white"/>
  <path
    d="M17.0096 22.73C16.7892 22.728 16.5733 22.7917 16.3892 22.9129C16.2051 23.0341 16.0613 23.2073 15.9761 23.4105C15.8908 23.6138 15.868 23.8378 15.9105 24.054C15.953 24.2703 16.0589 24.469 16.2148 24.6248C16.3706 24.7806 16.5693 24.8866 16.7855 24.9291C17.0018 24.9716 17.2258 24.9488 17.429 24.8635C17.6323 24.7783 17.8055 24.6344 17.9267 24.4504C18.0479 24.2663 18.1116 24.0503 18.1096 23.83C18.1096 23.5382 17.9937 23.2584 17.7874 23.0521C17.5811 22.8459 17.3013 22.73 17.0096 22.73Z"
    fill="white"/>
  <path
    d="M11.3602 22.73C11.1398 22.728 10.9238 22.7917 10.7398 22.9129C10.5557 23.0341 10.4119 23.2073 10.3266 23.4105C10.2414 23.6138 10.2186 23.8378 10.2611 24.054C10.3036 24.2703 10.4095 24.469 10.5653 24.6248C10.7212 24.7806 10.9199 24.8866 11.1361 24.9291C11.3524 24.9716 11.5764 24.9488 11.7796 24.8635C11.9828 24.7783 12.1561 24.6344 12.2773 24.4504C12.3985 24.2663 12.4622 24.0503 12.4602 23.83C12.4602 23.5382 12.3443 23.2584 12.138 23.0521C11.9317 22.8459 11.6519 22.73 11.3602 22.73Z"
    fill="white"/>
  <path
    d="M22.6698 22.73C22.4494 22.728 22.2334 22.7917 22.0493 22.9129C21.8653 23.0341 21.7215 23.2073 21.6362 23.4105C21.551 23.6138 21.5281 23.8378 21.5707 24.054C21.6132 24.2703 21.7191 24.469 21.8749 24.6248C22.0308 24.7806 22.2295 24.8866 22.4457 24.9291C22.6619 24.9716 22.8859 24.9488 23.0892 24.8635C23.2924 24.7783 23.4657 24.6344 23.5869 24.4504C23.7081 24.2663 23.7717 24.0503 23.7698 23.83C23.7698 23.5382 23.6539 23.2584 23.4476 23.0521C23.2413 22.8459 22.9615 22.73 22.6698 22.73Z"
    fill="white"/>
</svg>
