<svg width="36" height="42" viewBox="0 0 36 42" fill="none" xmlns="http://www.w3.org/2000/svg">
  <path d="M32.9062 3.82031C32.0156 4.05469 31.2578 4.62891 30.6328 5.54297C30.0078 6.45703 29.6953 7.45312 29.6953 8.53125C29.6953 9.45312 29.7305 10.8828 29.8008 12.8203C29.8711 14.7578 29.9062 16.1719 29.9062 17.0625C29.9062 18.1875 29.8047 19.1562 29.6016 19.9688C29.3984 20.7812 29.1367 21.4375 28.8164 21.9375C28.4961 22.4375 28.0625 22.8516 27.5156 23.1797C26.9688 23.5078 26.4258 23.7461 25.8867 23.8945C25.3477 24.043 24.6797 24.1797 23.8828 24.3047C24.5547 23.1328 24.8906 21.8672 24.8906 20.5078C24.8906 19.1484 24.6172 17.7461 24.0703 16.3008C23.5234 14.8555 22.8789 13.5391 22.1367 12.3516C21.3945 11.1641 20.6172 10.1562 19.8047 9.32812C21.3516 7.46875 23.1172 6.07422 25.1016 5.14453C27.0859 4.21484 29.6875 3.77344 32.9062 3.82031ZM19.5 25.5C21.9219 24.9219 23.1406 23.3594 23.1562 20.8125C23.1719 19.7344 22.9688 18.5781 22.5469 17.3438C22.125 16.1094 21.5273 14.875 20.7539 13.6406C19.9805 12.4062 19 11.2227 17.8125 10.0898C16.625 8.95703 15.3203 7.95703 13.8984 7.08984C12.4766 6.22266 10.8477 5.53906 9.01172 5.03906C7.17578 4.53906 5.28125 4.30469 3.32812 4.33594C4.20312 4.57031 4.95703 5.23047 5.58984 6.31641C6.22266 7.40234 6.53906 8.5 6.53906 9.60938C6.53906 10.5469 6.50391 11.8906 6.43359 13.6406C6.36328 15.3906 6.32812 16.7031 6.32812 17.5781C6.32812 18.625 6.52344 19.5898 6.91406 20.4727C7.30469 21.3555 7.83203 22.1016 8.49609 22.7109C9.16016 23.3203 9.92969 23.8359 10.8047 24.2578C11.6797 24.6797 12.5977 24.9922 13.5586 25.1953C14.5195 25.3984 15.5 25.5 16.5 25.5V31.5C16.0156 30.9062 15.207 30.3047 14.0742 29.6953C12.9414 29.0859 11.7266 28.5703 10.4297 28.1484C8.58594 27.5234 6.62891 27.2383 4.55859 27.293C2.48828 27.3477 0.96875 27.75 0 28.5C2.23438 31.4062 4.88281 33.2812 7.94531 34.125C11.0078 34.9688 13.8594 34.5938 16.5 33V41.2031C16.5 41.4219 16.5625 41.6094 16.6875 41.7656C16.8125 41.9219 16.9844 42 17.2031 42H18.7969C19.0156 42 19.1875 41.9219 19.3125 41.7656C19.4375 41.6094 19.5 41.4219 19.5 41.2031V37.5C20.9062 38.1406 22.3789 38.4805 23.918 38.5195C25.457 38.5586 26.9492 38.3203 28.3945 37.8047C29.8398 37.2891 31.2266 36.4922 32.5547 35.4141C33.8828 34.3359 35.0312 33.0312 36 31.5C35.25 31.0469 34.2773 30.6875 33.082 30.4219C31.8867 30.1562 30.5547 30.0586 29.0859 30.1289C27.6172 30.1992 26.2969 30.4844 25.125 30.9844C24.1406 31.4062 23.125 32.082 22.0781 33.0117C21.0312 33.9414 20.1719 34.8359 19.5 35.6953V25.5ZM27.2812 2.27344C27.2812 2.63281 26.8945 3.02344 26.1211 3.44531C25.3477 3.86719 24.4141 4.28125 23.3203 4.6875C22.2266 5.09375 21.625 5.32812 21.5156 5.39062C21.5625 5.01562 21.4023 4.67188 21.0352 4.35938C20.668 4.04688 20.25 3.81641 19.7812 3.66797C19.3125 3.51953 18.8711 3.37891 18.457 3.24609C18.043 3.11328 17.8281 3.01562 17.8125 2.95312C17.7344 2.76562 18.1367 2.64453 19.0195 2.58984C19.9023 2.53516 20.7891 2.48828 21.6797 2.44922C22.5703 2.41016 22.9922 2.3125 22.9453 2.15625C22.9141 2.0625 22.8164 1.98047 22.6523 1.91016C22.4883 1.83984 22.2695 1.78125 21.9961 1.73438C21.7227 1.6875 21.4336 1.64844 21.1289 1.61719C20.8242 1.58594 20.4961 1.5625 20.1445 1.54688C19.793 1.53125 19.4883 1.51953 19.2305 1.51172L18.457 1.48828L18 1.47656C17.3906 1.44531 16.4141 1.49219 15.0703 1.61719C13.7266 1.74219 13.0859 1.9375 13.1484 2.20312C13.1953 2.42188 13.5938 2.65625 14.3438 2.90625C15.0938 3.15625 15.9023 3.38672 16.7695 3.59766C17.6367 3.80859 18.4297 4.10938 19.1484 4.5C19.8672 4.89062 20.2266 5.33594 20.2266 5.83594C20.2266 6.00781 20.2109 6.15234 20.1797 6.26953C20.1484 6.38672 20.0703 6.51953 19.9453 6.66797C19.8203 6.81641 19.7109 6.94141 19.6172 7.04297C19.5234 7.14453 19.3359 7.31641 19.0547 7.55859C18.7734 7.80078 18.5391 8.01562 18.3516 8.20312C17.6484 7.46875 16.8594 6.85156 15.9844 6.35156C15.1094 5.85156 13.9609 5.47656 12.5391 5.22656C11.4766 5.02344 10.6016 4.67969 9.91406 4.19531C9.22656 3.71094 8.88281 3.17188 8.88281 2.57812C8.88281 2.17188 9.05859 1.81641 9.41016 1.51172C9.76172 1.20703 10.25 0.964844 10.875 0.785156C11.5 0.605469 12.125 0.457031 12.75 0.339844C13.375 0.222656 14.082 0.144531 14.8711 0.105469C15.6602 0.0664062 16.2617 0.0390625 16.6758 0.0234375C17.0898 0.0078125 17.5312 0 18 0C24.1875 0 27.2812 0.757812 27.2812 2.27344Z" fill="white"/>
</svg>
