<svg width="26" height="26" viewBox="0 0 26 26" fill="none" xmlns="http://www.w3.org/2000/svg">
  <path d="M13.7243 2.38235L13 3.19944L12.2724 2.38235C10.9204 0.856117 9.09706 0.000325864 7.1972 0.000325864C5.29734 0.000325864 3.47396 0.856117 2.12198 2.38235C1.45098 3.12046 0.917181 4.00584 0.552561 4.98546C0.187941 5.96508 0 7.01877 0 8.08342C0 9.14806 0.187941 10.2018 0.552561 11.1814C0.917181 12.161 1.45098 13.0464 2.12198 13.7845L13 26L23.878 13.7845C24.549 13.0464 25.0828 12.161 25.4474 11.1814C25.8121 10.2018 26 9.14806 26 8.08342C26 7.01877 25.8121 5.96508 25.4474 4.98546C25.0828 4.00584 24.549 3.12046 23.878 2.38235C22.5255 0.855886 20.7016 0 18.8012 0C16.9008 0 15.0769 0.855886 13.7243 2.38235Z" fill="white"/>
</svg>
