<svg width="34" height="34" viewBox="0 0 34 34" fill="none" xmlns="http://www.w3.org/2000/svg">
  <path
    d="M13.6552 21.2162C13.1772 20.8419 12.309 20.8467 11.6827 21.2191C11.5323 21.3085 11.3074 21.3071 11.1914 21.2152C11.0765 21.1252 11.1103 20.9761 11.2608 20.8871C11.4124 20.7967 11.6272 20.7967 11.7477 20.8914C12.0308 20.7202 12.3117 20.5479 12.5921 20.3748C12.1968 20.0625 11.5589 20.0077 11.001 20.1891C10.9216 20.126 10.8422 20.064 10.7622 20C10.5091 20.1525 10.2548 20.3036 10 20.4537C10.0838 20.5196 10.1688 20.5864 10.2543 20.6523C9.95392 20.9963 9.95559 21.4148 10.3248 21.7045C10.5307 21.8666 10.8072 21.9623 11.1148 21.9902C11.5256 22.0287 11.9814 21.944 12.3367 21.7319C12.4877 21.6429 12.7031 21.6429 12.8186 21.7338C12.9346 21.8252 12.9102 21.9748 12.7592 22.0648C12.6087 22.1547 12.3833 22.1528 12.2673 22.0629C11.9825 22.2288 11.696 22.3938 11.4074 22.5569C11.7738 22.8446 12.3967 22.9177 12.9424 22.7672C13.0412 22.8446 13.1384 22.923 13.2378 23C13.4937 22.8504 13.7474 22.7003 14 22.5478C13.9041 22.4744 13.8093 22.3998 13.7158 22.3241C14.05 21.9671 14.0355 21.5173 13.6552 21.2162Z"
    fill="white"/>
  <path
    d="M23.2914 11.1284C23.6705 11.1284 24.067 10.9872 24.3482 10.7206C24.4681 10.6076 24.662 10.5861 24.7831 10.6726C24.9054 10.759 24.9112 10.9236 24.7918 11.0365C24.6719 11.1499 24.4681 11.171 24.347 11.085C24.1199 11.2958 23.8911 11.5048 23.6611 11.7124C24.0448 11.9863 24.6218 11.9995 25.0859 11.7791L25.3962 12C25.6 11.8111 25.8009 11.6218 26 11.4307L25.7025 11.219C25.936 10.7974 25.8381 10.3113 25.4405 10.0264C24.938 9.66977 24.1578 9.7658 23.6629 10.2322C23.5429 10.3456 23.3392 10.3666 23.2181 10.2807C23.0964 10.1938 23.101 10.0292 23.2192 9.91624C23.3409 9.80375 23.5336 9.78089 23.6594 9.87005C23.8836 9.65697 24.1054 9.44114 24.3237 9.22485C23.908 8.92854 23.3252 8.93403 22.8559 9.18873L22.6038 9.00948C22.4052 9.20061 22.2032 9.39038 22 9.57877C22.0891 9.64188 22.1782 9.70589 22.2667 9.76808C22.06 10.1728 22.1368 10.6264 22.5252 10.9016C22.7418 11.0567 23.0079 11.1321 23.2914 11.1284Z"
    fill="white"/>
  <path
    d="M32.6944 16.826C33.1446 16.2796 33.58 15.721 34 15.151C33.8238 13.7388 33.6305 12.312 33.4186 10.8755L33.3455 10.8097L33.6124 10.4187L32.9437 9.81127C29.6384 6.81077 26.3341 3.81083 23.0288 0.811467L22.1351 0L21.4563 0.995633C20.2996 2.68411 19.0499 4.30691 17.7129 5.8565C17.786 5.54597 17.8659 5.2258 17.9531 4.89317C18.3107 3.536 17.8919 2.6146 17.4771 2.08137C16.7048 1.08687 15.2428 0.538333 13.3586 0.538333C8.01607 0.538333 0.286733 4.7396 0.286733 12.3358C0.286733 13.3784 0.981467 14.1072 1.9754 14.1072C2.70923 14.1072 3.55697 13.6969 4.50897 12.8837C4.5985 13.1914 4.73337 13.4821 4.93057 13.7292C5.30797 14.2029 5.86443 14.4642 6.49797 14.4642C6.6402 14.4642 6.7864 14.4517 6.93657 14.4256C7.004 14.7526 7.12753 15.0762 7.32473 15.3584C5.48204 16.6865 3.56676 17.9109 1.5878 19.0258L0.330367 19.7313L1.33393 20.6425C1.1288 20.7695 0.9231 20.897 0.718533 21.0205C0.491867 22.0677 0.252167 23.1013 0 24.1162C3.6295 27.4119 7.25843 30.7048 10.8874 34C14.0469 32.2812 17.1036 30.3796 20.0419 28.305C20.043 28.3067 20.043 28.309 20.0441 28.3101C20.3173 28.7844 20.7627 29.1085 21.3718 29.2814C20.3173 30.4991 19.9382 31.5424 20.2442 32.3941C20.4884 33.0724 21.1168 33.4775 21.926 33.4775C29.5681 33.4775 33.7943 25.7947 33.7943 20.4839C33.7943 19.2174 33.5421 18.126 33.065 17.3287C32.9565 17.1505 32.8325 16.9823 32.6944 16.826ZM17.2981 7.8999C19.1233 5.9024 20.8103 3.79723 22.3221 1.5793C25.6275 4.57923 28.9323 7.5786 32.2371 10.5797C30.8654 12.5825 29.3667 14.4953 27.7502 16.3064C27.2266 16.4169 26.7319 16.5127 26.2786 16.5863C27.6941 15.0609 29.0354 13.477 30.2668 11.8173L29.9364 11.5175C29.5709 11.186 29.5182 10.5927 29.8078 10.1881C29.8951 10.0646 29.9829 9.94273 30.0702 9.82033C27.8664 7.82113 25.6632 5.82023 23.4611 3.82103L23.1988 4.1888C22.9086 4.59227 22.3686 4.64837 22.0048 4.31687L21.6739 4.01823C20.2685 5.91203 18.7278 7.7129 17.0856 9.43103C17.1349 8.96977 17.2034 8.46147 17.2981 7.8999ZM21.2902 13.4549C20.1337 12.4043 18.5141 12.1669 17.0652 12.644C17.0215 12.359 16.9586 11.7612 16.9875 10.8205C18.7162 9.08214 20.3326 7.23561 21.8269 5.2921C22.3896 5.58393 23.0588 5.51877 23.5529 5.1153L28.9238 9.99033C28.6711 10.6125 28.7323 11.3424 29.0972 11.8932C27.7939 13.5949 26.3795 15.2184 24.8823 16.775C24.2544 16.845 23.6232 16.8819 22.9914 16.8855C22.8106 16.8855 22.6508 16.881 22.5018 16.8748C22.7052 15.6553 22.2876 14.3599 21.2902 13.4549ZM6.6198 13.4113C6.58013 13.4147 6.53593 13.4232 6.49853 13.4232C5.23203 13.4232 5.35613 11.6082 5.49043 10.7293C6.18913 10.0334 6.84647 9.30693 7.5327 8.62013C8.2569 7.88233 9.01793 7.1842 9.87417 6.62773C10.7298 6.0758 11.7017 5.68423 12.7551 5.58677C11.7028 5.47797 10.6029 5.75223 9.66507 6.2781C8.71533 6.79433 7.90443 7.50947 7.1587 8.25633C6.41807 9.01113 5.73863 9.809 5.0541 10.5938C4.36447 11.3685 3.6822 12.1459 2.84977 12.7863C2.50013 12.9778 2.2066 13.0656 1.97483 13.0656C1.55267 13.0656 1.3328 12.7812 1.3328 12.3352C1.3328 5.2309 8.71477 1.57873 13.3575 1.57873C15.7941 1.57873 17.4771 2.58627 16.9377 4.62967C15.3748 10.5672 16.0933 13.128 16.0933 13.128C15.4813 14.2698 14.3015 14.641 14.3015 14.641C13.6586 14.4676 12.9954 14.3809 12.3295 14.3831C10.9956 14.3831 10.0521 14.7141 10.0521 14.7141C9.55343 14.9963 9.1681 15.1102 8.8706 15.1102C7.79393 15.1102 7.87553 13.6096 7.9356 13.09C8.07783 13.0231 8.2161 12.9506 8.34927 12.8724C8.88307 12.5653 9.35453 12.1799 9.81467 11.8025C10.2691 11.4183 10.7111 11.0347 11.1792 10.6975C11.649 10.3655 12.1544 10.0889 12.754 9.97787C12.6024 9.95089 12.4482 9.94081 12.2944 9.94783C11.832 9.9688 11.3679 10.132 10.9639 10.3513C10.4136 10.642 9.9382 11.0262 9.47693 11.4042C9.0219 11.7912 8.58103 12.1788 8.12203 12.5352C7.66473 12.8866 7.1825 13.1982 6.6198 13.4113ZM18.0908 25.0325C16.1431 26.4481 14.1155 27.7502 12.0179 28.9323C8.71307 25.9312 5.40883 22.9336 2.10347 19.9319C4.20574 18.7475 6.23779 17.4426 8.18947 16.0236C8.40197 16.1024 8.6292 16.1523 8.87117 16.1523C9.11937 16.1523 9.37947 16.1092 9.65373 16.0253C8.0868 17.2097 6.46348 18.3175 4.78947 19.3449C4.8994 19.4452 5.01047 19.5455 5.11983 19.6463C5.48363 19.9767 5.423 20.4657 4.97873 20.7281C4.84273 20.8074 4.70787 20.8873 4.573 20.9655L11.1826 26.966C11.3186 26.8866 11.4529 26.8084 11.5883 26.7268C12.0332 26.465 12.6877 26.5138 13.052 26.8441L13.3824 27.1456C15.1071 26.0852 16.778 24.9397 18.3889 23.7133C18.1736 24.191 18.075 24.6319 18.0908 25.0325ZM18.7669 22.3153C17.0676 23.6631 15.2983 24.92 13.4663 26.0808C12.8588 25.7505 12.0541 25.6955 11.3713 25.9256L5.99987 21.0505C6.443 20.6023 6.51497 19.9937 6.1948 19.4826C8.15398 18.2431 10.0419 16.8943 11.8496 15.4428C12.0026 15.432 12.1612 15.4247 12.3301 15.4247C12.9025 15.4227 13.4727 15.4968 14.0256 15.6451L14.1225 15.6717C13.8437 16.8447 14.1774 18.0812 15.1855 18.9964C16.1115 19.8362 17.4074 20.2215 18.6643 20.124C18.8462 20.9553 18.836 21.7249 18.7669 22.3153ZM21.9255 32.4366C21.229 32.4366 20.931 31.9062 21.4795 30.919C22.1227 30.0968 22.9018 29.4202 23.6776 28.7385C24.467 28.0585 25.2694 27.3819 26.0293 26.6464C26.7795 25.9052 27.4998 25.0999 28.0188 24.1553C28.5475 23.2231 28.8241 22.1295 28.7147 21.0834C28.6161 22.1306 28.2234 23.0973 27.6675 23.9485C27.1076 24.799 26.405 25.5555 25.6632 26.2758C24.9724 26.9569 24.242 27.6103 23.5427 28.3044C23.273 28.3452 22.9171 28.3849 22.5511 28.3849C21.6824 28.3849 20.7655 28.1588 20.8397 27.1926C21.0539 26.6282 21.3696 26.1454 21.7243 25.687C22.083 25.2308 22.4729 24.7928 22.8622 24.3406C23.243 23.8816 23.6294 23.409 23.9213 22.8627C24.2148 22.3272 24.4092 21.6858 24.297 21.0834C24.1859 21.6795 23.9077 22.1822 23.5739 22.6491C23.235 23.1143 22.8491 23.5541 22.4615 24.0063C22.0824 24.4641 21.6943 24.9328 21.386 25.4632C21.3066 25.5964 21.2338 25.7336 21.1678 25.874C20.9943 25.8935 20.8199 25.9037 20.6454 25.9046C19.7602 25.9046 18.475 25.6218 19.5336 23.7694C19.5336 23.7694 20.2306 21.8048 19.6072 19.5455C19.6072 19.5455 19.9801 18.3725 21.1282 17.7639C21.1282 17.7639 21.7192 17.9276 22.9914 17.9276C24.3752 17.9276 26.5653 17.7338 29.678 16.9241C29.9163 16.8598 30.1617 16.8261 30.4085 16.8238C35.3883 16.8238 32.3493 32.4366 21.9255 32.4366Z"
    fill="white"/>
</svg>
