<svg width="31" height="33" viewBox="0 0 31 33" fill="none" xmlns="http://www.w3.org/2000/svg">
  <path
    d="M15.484 0.391076C10.844 0.391076 5.385 1.49508 0.724 3.89608L0 4.26508V5.08808C0 10.0361 0.0930004 23.2401 14.801 31.9791L15.484 32.3911L16.167 31.9791C30.875 23.2401 30.968 10.0361 30.968 5.08808V4.27608L30.249 3.90108C25.645 1.48908 20.124 0.390076 15.484 0.390076V0.391076ZM15.484 3.07408C19.453 3.07408 24.265 4.08908 28.249 6.00608C28.238 11.1891 27.692 21.3971 15.484 29.1101C3.276 21.3971 2.724 11.1891 2.719 6.00608C6.766 4.08508 11.515 3.07408 15.484 3.07408ZM22.197 10.4951C21.848 10.5061 21.552 10.7241 21.385 10.8911L14.213 18.3341L11.525 15.1151C10.254 13.6421 8.51 14.7821 8.109 15.0471L14.344 22.2871L22.859 10.7551C22.7713 10.6704 22.6678 10.6039 22.5544 10.5593C22.441 10.5146 22.3199 10.4928 22.198 10.4951H22.197Z"
    fill="white"/>
</svg>
