<svg width="34" height="34" viewBox="0 0 34 34" fill="none" xmlns="http://www.w3.org/2000/svg">
  <path fill-rule="evenodd" clip-rule="evenodd"
        d="M11.9 28.9C10.2 28.9 5.1 23.8 5.1 22.1C5.1 21.5339 5.6661 20.4 6.8 18.7L0 17L3.4 11.9L10.2 13.6C17 3.4 27.2 0 34 0C34 6.8 30.6 17 20.4 23.8L22.1 30.6L17 34L15.3 27.2C13.6 28.3339 12.4661 28.9 11.9 28.9ZM10.268 23.732C10.8698 24.3355 11.4903 24.8744 12.0071 25.245C12.3862 25.0342 12.8588 24.7418 13.4147 24.3712L18.5147 20.9712C25.1413 16.5512 29.121 10.064 30.2583 3.7417C23.936 4.8807 17.4471 8.8587 13.0288 15.4853L9.6288 20.5853C9.2582 21.1412 8.9658 21.6138 8.7533 21.9929C9.1273 22.5097 9.6645 23.1319 10.2663 23.7337L10.268 23.732Z"
        fill="white"/>
  <path
    d="M23 14C24.6569 14 26 12.6569 26 11C26 9.34315 24.6569 8 23 8C21.3431 8 20 9.34315 20 11C20 12.6569 21.3431 14 23 14Z"
    fill="white"/>
  <path fill-rule="evenodd" clip-rule="evenodd"
        d="M3.33333 24L5 26.5C3.88833 27.6117 3.33333 29 3.33333 30.6667C5 30.6667 6.38833 30.1117 7.5 29L10 30.6667C7.77833 32.8883 4.445 34 0 34C0 29.555 1.11167 26.2217 3.33333 24Z"
        fill="white"/>
</svg>
