<svg width="61" height="34" viewBox="0 0 61 34" fill="none" xmlns="http://www.w3.org/2000/svg">
  <path d="M16.5605 7.65004C16.5605 7.65004 16.9789 4.36837 17.3028 3.92122C17.6268 3.47407 18.2116 2.17733 31.8096 2.32141C45.4075 2.4655 46.2717 3.18591 46.6438 3.47407C47.0159 3.76223 47.1357 7.22504 47.1357 7.22504" stroke="white" stroke-width="3"/>
  <path d="M11.2607 12.9912C12.0414 10.8415 14.1364 9.32852 16.8107 8.76262C21.9931 7.66602 29.8505 7.12182 36.8493 7.36122C40.3427 7.48072 43.5475 7.79332 46.0497 8.30469C47.3022 8.56065 48.3268 8.85615 49.1027 9.17663C49.9125 9.51109 50.2821 9.80429 50.4115 9.95691C51.3156 11.0232 52.0968 12.7977 52.7048 15.0161C53.3001 17.1883 53.6763 19.5849 53.8885 21.7179C54.2281 25.132 53.2039 27.6284 50.5821 29.1749C47.1802 31.1814 42.4311 31.5464 38.1427 30.871C35.1073 30.3929 32.257 30.133 28.3443 30.5013C27.9511 30.5383 27.56 30.5762 27.171 30.6139C24.6148 30.8615 22.1486 31.1004 19.7541 31.0268C17.0274 30.943 14.578 30.4525 12.4557 29.2022L11.4405 30.9254L12.4557 29.2022C12.0693 28.9746 11.6964 28.7299 11.3368 28.4646C10.1696 27.6036 9.52365 26.2496 9.52745 24.6626C9.53515 21.4475 9.96907 16.5475 11.2607 12.9912Z" stroke="white" stroke-width="4"/>
  <path d="M56.0925 18.9112L54.9017 12.9524C55.2185 12.9346 55.5395 13.1353 55.6162 13.4957L56.6874 18.5313C56.7215 18.6913 56.6866 18.7615 56.6658 18.7955C56.6333 18.8486 56.5635 18.9147 56.4532 18.9551C56.3429 18.9955 56.2469 18.9902 56.1877 18.9707C56.1657 18.9634 56.132 18.9498 56.0925 18.9112Z" stroke="white" stroke-width="3"/>
  <path d="M8.61971 13.0273L7.22238 18.9406C6.92678 18.8248 6.71829 18.5083 6.79866 18.1483L7.92031 13.1249C7.95597 12.9652 8.01691 12.9158 8.05002 12.8935C8.10173 12.8588 8.19279 12.8277 8.30991 12.837C8.42704 12.8462 8.51215 12.8911 8.55782 12.9335C8.57486 12.9493 8.5998 12.9757 8.61971 13.0273Z" stroke="white" stroke-width="3"/>
</svg>
